<svg id="Layer_2" data-name="Layer 2" xmlns="http://www.w3.org/2000/svg" viewBox="0 0 165.36 33.95"><defs><style>.cls-1{fill:#c05347;}</style></defs><polygon class="cls-1" points="0 33.95 21.69 0 30.99 0 9.47 33.95 0 33.95"/><polygon class="cls-1" points="18.27 33.95 39.97 0 49.27 0 27.74 33.95 18.27 33.95"/><path class="cls-1" d="M60.79,8.14V28.41H57.34V8.14Z" transform="translate(0 0)"/><path class="cls-1" d="M71.47,14.43V26c.83.09,1.64.14,2.45.16l-.21,2.21a18.74,18.74,0,0,1-3.13.35,2.72,2.72,0,0,1-1.94-.6A2.45,2.45,0,0,1,68,26.3V14.43H65.61V12.19H68V8.72l3.45-.81v4.28h3.07v2.24Z" transform="translate(0 0)"/><path class="cls-1" d="M103.66,8.14V28.41h-3.44V19.65h-9v8.76H87.81V8.14h3.45v9h9V8.14Z" transform="translate(0 0)"/><path class="cls-1" d="M123.52,28.41h-1.59L121,26.79a9.47,9.47,0,0,1-3,1.47,13.38,13.38,0,0,1-3.74.47,5.77,5.77,0,0,1-3.45-.82,3,3,0,0,1-1.1-2.58V12.19h3.44V26.24h4a4.72,4.72,0,0,0,2.31-.39,1.64,1.64,0,0,0,.62-1.5V12.19h3.45Z" transform="translate(0 0)"/><path class="cls-1" d="M132.55,14.75a30,30,0,0,1,2.65-2,10,10,0,0,1,2.07-1l.35,3.18a17.91,17.91,0,0,0-2.37.89A13.16,13.16,0,0,0,133.17,17V28.41h-3.45V12.19h1.62Z" transform="translate(0 0)"/><path class="cls-1" d="M145.72,14.43V26c.82.09,1.64.14,2.44.16l-.2,2.21a18.84,18.84,0,0,1-3.14.35,2.69,2.69,0,0,1-1.93-.6,2.45,2.45,0,0,1-.62-1.83V14.43h-2.41V12.19h2.41V8.72l3.45-.81v4.28h3.06v2.24Z" transform="translate(0 0)"/><path class="cls-1" d="M153.83,12.87a8.36,8.36,0,0,1,4.95-1.17,22.25,22.25,0,0,1,5.72.72L164,14.79a14.8,14.8,0,0,0-2-.38,19.35,19.35,0,0,0-2.18-.14,24.7,24.7,0,0,0-3.93.29v3.83A43.74,43.74,0,0,1,162,19.51,4.94,4.94,0,0,1,164.64,21a4.62,4.62,0,0,1,.72,2.81,5.44,5.44,0,0,1-.7,2.95,4.07,4.07,0,0,1-2.3,1.6,14.23,14.23,0,0,1-4.24.51,22.48,22.48,0,0,1-6.23-.95l.55-2.59a16.24,16.24,0,0,0,5.65,1,16.45,16.45,0,0,0,1.83-.09,17.53,17.53,0,0,0,1.82-.36V22.05a49.52,49.52,0,0,1-6.34-1.13,4.39,4.39,0,0,1-2.51-1.48,5.24,5.24,0,0,1-.63-2.9A4.29,4.29,0,0,1,153.83,12.87Z" transform="translate(0 0)"/></svg>