<?xml version="1.0" encoding="UTF-8" standalone="no"?>
<svg
   id="Layer_2"
   data-name="Layer 2"
   viewBox="0 0 165.36 33.95"
   version="1.1"
   sodipodi:docname="logo-old.svg"
   inkscape:version="1.2.2 (732a01da63, 2022-12-09)"
   xmlns:inkscape="http://www.inkscape.org/namespaces/inkscape"
   xmlns:sodipodi="http://sodipodi.sourceforge.net/DTD/sodipodi-0.dtd"
   xmlns="http://www.w3.org/2000/svg"
   xmlns:svg="http://www.w3.org/2000/svg">
  <sodipodi:namedview
     id="namedview50"
     pagecolor="#ffffff"
     bordercolor="#000000"
     borderopacity="0.25"
     inkscape:showpageshadow="2"
     inkscape:pageopacity="0.0"
     inkscape:pagecheckerboard="0"
     inkscape:deskcolor="#d1d1d1"
     showgrid="false"
     inkscape:zoom="6.951399"
     inkscape:cx="63.512395"
     inkscape:cy="29.562395"
     inkscape:window-width="1920"
     inkscape:window-height="1130"
     inkscape:window-x="-6"
     inkscape:window-y="-6"
     inkscape:window-maximized="1"
     inkscape:current-layer="Layer_2" />
  <defs
     id="defs29">
    <style
       id="style27">.cls-1{fill:#c05347;}</style>
  </defs>
  <g
     aria-label="Resolvt"
     id="text264"
     style="font-size:32px;fill:#c05347;stroke-width:0.88687">
    <path
       d="m 59.698434,6.852222 q 4.384,0 6.464,1.632 2.112,1.632 2.112,4.96 0,1.76 -0.672,2.976 -0.64,1.184 -1.664,1.952 -1.024,0.736 -2.144,1.184 l 6.4,10.144 h -3.968 l -5.504,-9.248 h -3.968 v 9.248 h -3.456 v -22.848 z m -0.224,2.944 h -2.72 v 7.776 h 2.88 q 2.656,0 3.872,-0.992 1.216,-1.024 1.216,-3.008 0,-2.048 -1.28,-2.912 -1.28,-0.864 -3.968,-0.864 z"
       style="font-weight:500;font-family:'Noto Sans';-inkscape-font-specification:'Noto Sans Medium'"
       id="path494" />
    <path
       d="m 79.954416,12.132222 q 3.392,0 5.344,2.112 1.952,2.08 1.952,5.696 v 1.856 h -11.584 q 0.064,2.656 1.376,4.064 1.344,1.408 3.744,1.408 1.664,0 2.944,-0.288 1.312,-0.32 2.688,-0.928 v 2.816 q -1.312,0.576 -2.624,0.864 -1.312,0.288 -3.136,0.288 -2.528,0 -4.448,-0.992 -1.888,-0.992 -2.976,-2.944 -1.056,-1.984 -1.056,-4.864 0,-2.912 0.96,-4.928 0.992,-2.016 2.72,-3.072 1.76,-1.088 4.096,-1.088 z m 0,2.624 q -1.824,0 -2.944,1.184 -1.088,1.184 -1.28,3.36 h 8.128 q -0.032,-2.016 -0.992,-3.264 -0.928,-1.28 -2.912,-1.28 z"
       style="font-weight:500;font-family:'Noto Sans';-inkscape-font-specification:'Noto Sans Medium'"
       id="path496" />
    <path
       d="m 102.93043,24.836222 q 0,2.528 -1.856,3.872 -1.855998,1.312 -5.151998,1.312 -1.824,0 -3.136,-0.288 -1.28,-0.256 -2.368,-0.768 v -2.976 q 1.12,0.544 2.624,0.992 1.536,0.416 2.976,0.416 1.92,0 2.752,-0.608 0.864,-0.608 0.864,-1.632 0,-0.576 -0.32,-1.024 -0.32,-0.48 -1.216,-0.96 -0.864,-0.512 -2.56,-1.152 -1.664,-0.672 -2.816,-1.312 -1.12,-0.672 -1.728,-1.568 -0.608,-0.928 -0.608,-2.368 0,-2.24 1.792,-3.424 1.824,-1.216 4.8,-1.216 1.568,0 2.944,0.32 1.407998,0.32 2.719998,0.896 l -1.12,2.592 q -1.12,-0.48 -2.303998,-0.8 -1.184,-0.352 -2.4,-0.352 -1.536,0 -2.336,0.48 -0.8,0.48 -0.8,1.344 0,0.608 0.384,1.056 0.384,0.448 1.28,0.896 0.928,0.448 2.528,1.088 1.6,0.608 2.719998,1.248 1.152,0.64 1.728,1.568 0.608,0.928 0.608,2.368 z"
       style="font-weight:500;font-family:'Noto Sans';-inkscape-font-specification:'Noto Sans Medium'"
       id="path498" />
    <path
       d="m 122.16241,21.060222 q 0,4.288 -2.208,6.624 -2.208,2.336 -5.952,2.336 -2.336,0 -4.16,-1.056 -1.792,-1.056 -2.848,-3.04 -1.024,-2.016 -1.024,-4.864 0,-4.288 2.176,-6.592 2.176,-2.336 5.952,-2.336 2.368,0 4.16,1.056 1.824,1.024 2.848,3.008 1.056,1.984 1.056,4.864 z m -12.704,0 q 0,2.912 1.088,4.544 1.12,1.632 3.52,1.632 2.4,0 3.488,-1.632 1.12,-1.632 1.12,-4.544 0,-2.944 -1.12,-4.512 -1.12,-1.6 -3.52,-1.6 -2.4,0 -3.488,1.6 -1.088,1.568 -1.088,4.512 z"
       style="font-weight:500;font-family:'Noto Sans';-inkscape-font-specification:'Noto Sans Medium'"
       id="path500" />
    <path
       d="m 129.84238,29.700222 h -3.392 v -24.32 h 3.392 z"
       style="font-weight:500;font-family:'Noto Sans';-inkscape-font-specification:'Noto Sans Medium'"
       id="path502" />
    <path
       d="m 139.02636,29.700222 -6.528,-17.248 h 3.584 l 3.584,10.08 q 0.352,0.992 0.704,2.24 0.352,1.216 0.448,2.016 h 0.128 q 0.128,-0.8 0.512,-2.048 0.384,-1.248 0.704,-2.208 l 3.584,-10.08 h 3.584 l -6.56,17.248 z"
       style="font-weight:500;font-family:'Noto Sans';-inkscape-font-specification:'Noto Sans Medium'"
       id="path504" />
    <path
       d="m 158.19439,27.268222 q 0.672,0 1.376,-0.096 0.704,-0.128 1.216,-0.32 v 2.56 q -0.576,0.256 -1.504,0.416 -0.896,0.192 -1.824,0.192 -1.408,0 -2.592,-0.48 -1.184,-0.48 -1.888,-1.664 -0.672,-1.184 -0.672,-3.296 v -9.536 h -2.4 v -1.536 l 2.528,-1.28 1.184,-3.648 h 2.08 v 3.872 h 4.928 v 2.592 h -4.928 v 9.472 q 0,1.408 0.672,2.08 0.704,0.672 1.824,0.672 z"
       style="font-weight:500;font-family:'Noto Sans';-inkscape-font-specification:'Noto Sans Medium'"
       id="path506" />
  </g>
  <polygon
     class="cls-1"
     points="0 33.95 21.69 0 30.99 0 9.47 33.95 0 33.95"
     id="polygon31" />
  <polygon
     class="cls-1"
     points="18.27 33.95 39.97 0 49.27 0 27.74 33.95 18.27 33.95"
     id="polygon33" />
</svg>
