<?xml version="1.0" encoding="UTF-8"?>
<svg width="700pt" height="700pt" version="1.1" viewBox="0 0 700 700" xmlns="http://www.w3.org/2000/svg" xmlns:xlink="http://www.w3.org/1999/xlink">
 <defs>
  <symbol id="o" overflow="visible">
   <path d="m29.312-1.75c-1.5117 0.78125-3.0898 1.3711-4.7344 1.7656-1.6367 0.40625-3.3398 0.60938-5.1094 0.60938-5.3125 0-9.5273-1.4844-12.641-4.4531-3.1055-2.9688-4.6562-7-4.6562-12.094s1.5508-9.125 4.6562-12.094c3.1133-2.9688 7.3281-4.4531 12.641-4.4531 1.7695 0 3.4727 0.19922 5.1094 0.59375 1.6445 0.39844 3.2227 0.99219 4.7344 1.7812v6.5938c-1.5312-1.0391-3.0391-1.8008-4.5156-2.2812-1.4805-0.48828-3.0391-0.73438-4.6719-0.73438-2.9375 0-5.2461 0.94531-6.9219 2.8281-1.6797 1.875-2.5156 4.4648-2.5156 7.7656 0 3.293 0.83594 5.8828 2.5156 7.7656 1.6758 1.875 3.9844 2.8125 6.9219 2.8125 1.6328 0 3.1914-0.23828 4.6719-0.71875 1.4766-0.48828 2.9844-1.2539 4.5156-2.2969z"/>
  </symbol>
  <symbol id="j" overflow="visible">
   <path d="m21.453-17.406c-0.67969-0.3125-1.3516-0.53906-2.0156-0.6875-0.65625-0.15625-1.3203-0.23438-1.9844-0.23438-1.9688 0-3.4844 0.63281-4.5469 1.8906-1.0547 1.2617-1.5781 3.0703-1.5781 5.4219v11.016h-7.6562v-23.922h7.6562v3.9219c0.97656-1.5625 2.1016-2.7031 3.375-3.4219 1.2812-0.71875 2.8125-1.0781 4.5938-1.0781 0.25 0 0.52344 0.011719 0.82812 0.03125 0.30078 0.023438 0.73438 0.070312 1.2969 0.14062z"/>
  </symbol>
  <symbol id="b" overflow="visible">
   <path d="m27.562-12.031v2.1875h-17.891c0.1875 1.793 0.83203 3.1367 1.9375 4.0312 1.1133 0.89844 2.6719 1.3438 4.6719 1.3438 1.6016 0 3.25-0.23438 4.9375-0.70312 1.6875-0.47656 3.4219-1.2031 5.2031-2.1719v5.8906c-1.8047 0.6875-3.6094 1.2031-5.4219 1.5469-1.8125 0.35156-3.6211 0.53125-5.4219 0.53125-4.3359 0-7.7031-1.0977-10.109-3.2969-2.3984-2.207-3.5938-5.2969-3.5938-9.2656 0-3.9062 1.1758-6.9727 3.5312-9.2031 2.3633-2.2383 5.6094-3.3594 9.7344-3.3594 3.7578 0 6.7695 1.1367 9.0312 3.4062 2.2578 2.2617 3.3906 5.2812 3.3906 9.0625zm-7.8594-2.5312c0-1.457-0.42969-2.6289-1.2812-3.5156-0.84375-0.89453-1.9492-1.3438-3.3125-1.3438-1.4922 0-2.6992 0.41797-3.625 1.25-0.91797 0.83594-1.4922 2.0391-1.7188 3.6094z"/>
  </symbol>
  <symbol id="a" overflow="visible">
   <path d="m14.391-10.766c-1.5938 0-2.793 0.27344-3.5938 0.8125-0.80469 0.54297-1.2031 1.3398-1.2031 2.3906 0 0.96875 0.32031 1.7305 0.96875 2.2812 0.64453 0.54297 1.5469 0.8125 2.7031 0.8125 1.4375 0 2.6445-0.51562 3.625-1.5469 0.98828-1.0312 1.4844-2.3203 1.4844-3.875v-0.875zm11.688-2.8906v13.656h-7.7031v-3.5469c-1.0312 1.4492-2.1875 2.5078-3.4688 3.1719s-2.8398 1-4.6719 1c-2.4805 0-4.4961-0.72266-6.0469-2.1719-1.543-1.4453-2.3125-3.3203-2.3125-5.625 0-2.8125 0.96094-4.8672 2.8906-6.1719 1.9375-1.3125 4.9688-1.9688 9.0938-1.9688h4.5156v-0.60938c0-1.207-0.48047-2.0938-1.4375-2.6562-0.94922-0.5625-2.4375-0.84375-4.4688-0.84375-1.6367 0-3.1562 0.16797-4.5625 0.5-1.4062 0.32422-2.7188 0.8125-3.9375 1.4688v-5.8281c1.6445-0.40625 3.2891-0.70703 4.9375-0.90625 1.6562-0.20703 3.3047-0.3125 4.9531-0.3125 4.3203 0 7.4375 0.85547 9.3438 2.5625 1.9141 1.6992 2.875 4.4609 2.875 8.2812z"/>
  </symbol>
  <symbol id="i" overflow="visible">
   <path d="m12.031-30.719v6.7969h7.875v5.4688h-7.875v10.141c0 1.1172 0.21875 1.8711 0.65625 2.2656 0.4375 0.38672 1.3125 0.57812 2.625 0.57812h3.9375v5.4688h-6.5625c-3.0234 0-5.1641-0.62891-6.4219-1.8906-1.2617-1.2578-1.8906-3.3984-1.8906-6.4219v-10.141h-3.7969v-5.4688h3.7969v-6.7969z"/>
  </symbol>
  <symbol id="h" overflow="visible">
   <path d="m19.953-20.422v-12.812h7.6875v33.234h-7.6875v-3.4531c-1.0547 1.4062-2.2148 2.4375-3.4844 3.0938-1.2734 0.65625-2.7422 0.98438-4.4062 0.98438-2.9492 0-5.3711-1.1719-7.2656-3.5156-1.8867-2.3438-2.8281-5.3594-2.8281-9.0469s0.94141-6.7031 2.8281-9.0469c1.8945-2.3438 4.3164-3.5156 7.2656-3.5156 1.6562 0 3.1172 0.33594 4.3906 1 1.2812 0.65625 2.4453 1.6836 3.5 3.0781zm-5.0469 15.484c1.6445 0 2.8945-0.59766 3.75-1.7969 0.86328-1.1953 1.2969-2.9297 1.2969-5.2031 0-2.2812-0.43359-4.0195-1.2969-5.2188-0.85547-1.1953-2.1055-1.7969-3.75-1.7969-1.625 0-2.8711 0.60156-3.7344 1.7969-0.85547 1.1992-1.2812 2.9375-1.2812 5.2188 0 2.2734 0.42578 4.0078 1.2812 5.2031 0.86328 1.1992 2.1094 1.7969 3.7344 1.7969z"/>
  </symbol>
  <symbol id="g" overflow="visible">
   <path d="m16.406-4.9375c1.6328 0 2.8828-0.59766 3.75-1.7969 0.86328-1.1953 1.2969-2.9297 1.2969-5.2031 0-2.2812-0.43359-4.0195-1.2969-5.2188-0.86719-1.1953-2.1172-1.7969-3.75-1.7969-1.6367 0-2.8906 0.60547-3.7656 1.8125-0.875 1.1992-1.3125 2.9336-1.3125 5.2031 0 2.2617 0.4375 3.9961 1.3125 5.2031 0.875 1.1992 2.1289 1.7969 3.7656 1.7969zm-5.0781-15.484c1.0508-1.3945 2.2188-2.4219 3.5-3.0781 1.2812-0.66406 2.7539-1 4.4219-1 2.9453 0 5.3672 1.1719 7.2656 3.5156 1.8945 2.3438 2.8438 5.3594 2.8438 9.0469s-0.94922 6.7031-2.8438 9.0469c-1.8984 2.3438-4.3203 3.5156-7.2656 3.5156-1.668 0-3.1406-0.33594-4.4219-1s-2.4492-1.6914-3.5-3.0781v3.4531h-7.6562v-33.234h7.6562z"/>
  </symbol>
  <symbol id="f" overflow="visible">
   <path d="m0.53125-23.922h7.6562l6.4219 16.234 5.4688-16.234h7.6562l-10.062 26.188c-1.0117 2.6641-2.1953 4.5234-3.5469 5.5781-1.3438 1.0625-3.1211 1.5938-5.3281 1.5938h-4.4219v-5.0156h2.3906c1.3008 0 2.2422-0.21094 2.8281-0.625 0.59375-0.40625 1.0547-1.1484 1.3906-2.2188l0.20312-0.65625z"/>
  </symbol>
  <symbol id="e" overflow="visible">
   <path d="m4.0156-31.891h8.2188v11.641l11.859-11.641h9.5469l-15.359 15.094 16.938 16.797h-10.281l-12.703-12.562v12.562h-8.2188z"/>
  </symbol>
  <symbol id="n" overflow="visible">
   <path d="m25.844-19.953c0.96875-1.4766 2.1172-2.6016 3.4531-3.375 1.332-0.78125 2.7969-1.1719 4.3906-1.1719 2.75 0 4.8438 0.85156 6.2812 2.5469 1.4375 1.6875 2.1562 4.1523 2.1562 7.3906v14.562h-7.6875v-12.469c0.007812-0.1875 0.019531-0.37891 0.03125-0.57812 0.007812-0.19531 0.015625-0.48438 0.015625-0.85938 0-1.6953-0.25-2.9258-0.75-3.6875-0.5-0.75781-1.3086-1.1406-2.4219-1.1406-1.4492 0-2.5703 0.60156-3.3594 1.7969-0.79297 1.1992-1.2031 2.9297-1.2344 5.1875v11.75h-7.6875v-12.469c0-2.6562-0.23047-4.3633-0.6875-5.125-0.44922-0.75781-1.2578-1.1406-2.4219-1.1406-1.4688 0-2.6055 0.60547-3.4062 1.8125-0.79297 1.1992-1.1875 2.918-1.1875 5.1562v11.766h-7.7031v-23.922h7.7031v3.5c0.9375-1.3516 2.0156-2.3672 3.2344-3.0469 1.2188-0.6875 2.5547-1.0312 4.0156-1.0312 1.6562 0 3.1133 0.40234 4.375 1.2031 1.2695 0.79297 2.2344 1.9062 2.8906 3.3438z"/>
  </symbol>
  <symbol id="d" overflow="visible">
   <path d="m3.6719-23.922h7.6562v23.922h-7.6562zm0-9.3125h7.6562v6.2344h-7.6562z"/>
  </symbol>
  <symbol id="c" overflow="visible">
   <path d="m27.734-14.562v14.562h-7.7031v-11.156c0-2.0625-0.046875-3.4844-0.14062-4.2656-0.085937-0.78125-0.24219-1.3594-0.46875-1.7344-0.30469-0.5-0.71094-0.88281-1.2188-1.1562-0.51172-0.28125-1.0938-0.42188-1.75-0.42188-1.5938 0-2.8516 0.61719-3.7656 1.8438-0.90625 1.2305-1.3594 2.9375-1.3594 5.125v11.766h-7.6562v-23.922h7.6562v3.5c1.1445-1.3945 2.3633-2.4219 3.6562-3.0781 1.3008-0.66406 2.7383-1 4.3125-1 2.7578 0 4.8516 0.85156 6.2812 2.5469 1.4375 1.6875 2.1562 4.1523 2.1562 7.3906z"/>
  </symbol>
  <symbol id="m" overflow="visible">
   <path d="m32.688-2.375c-2.0547 1-4.1836 1.75-6.3906 2.25-2.2109 0.5-4.4844 0.75-6.8281 0.75-5.3125 0-9.5273-1.4844-12.641-4.4531-3.1055-2.9688-4.6562-7-4.6562-12.094 0-5.1328 1.5781-9.1758 4.7344-12.125 3.1641-2.9453 7.5-4.4219 13-4.4219 2.125 0 4.1562 0.19922 6.0938 0.59375 1.9453 0.39844 3.7852 0.99219 5.5156 1.7812v6.5938c-1.7812-1.0078-3.5547-1.7656-5.3125-2.2656-1.7617-0.5-3.5273-0.75-5.2969-0.75-3.2734 0-5.793 0.91797-7.5625 2.75-1.7734 1.8359-2.6562 4.4492-2.6562 7.8438 0 3.375 0.85156 5.9844 2.5625 7.8281 1.707 1.8359 4.1328 2.75 7.2812 2.75 0.85156 0 1.6445-0.050781 2.375-0.15625 0.73828-0.10156 1.3984-0.26953 1.9844-0.5v-6.2031h-5.0312v-5.5h12.828z"/>
  </symbol>
  <symbol id="l" overflow="visible">
   <path d="m3.6719-33.234h7.6562v18.094l8.7969-8.7812h8.8906l-11.688 10.969 12.594 12.953h-9.2656l-9.3281-9.9688v9.9688h-7.6562z"/>
  </symbol>
  <symbol id="k" overflow="visible">
   <path d="m1.5312-23.922h7.4375l4.0156 16.484 4.0469-16.484h6.375l4.0156 16.312 4.0469-16.312h7.4375l-6.3125 23.922h-8.3438l-4.0469-16.453-4.0156 16.453h-8.3438z"/>
  </symbol>
 </defs>
 <g>
  <path d="m620.64 393.89c1.2617-4.6406 0.55469-9.5977-1.9492-13.703l-15.504-25.672c-2.543-4.0625-6.5391-7-11.172-8.2109-4.6328-1.2109-9.5547-0.60547-13.758 1.6914l-5.6602 3.125c-0.55469 0.20312-1.1758 0.089844-1.6211-0.29688-6.1719-4.5273-12.895-8.2578-20-11.105-0.30469-0.11719-0.58203-0.29688-0.80859-0.53516v-6.1953c-0.058594-4.8242-2.0352-9.4297-5.4883-12.801-3.4531-3.375-8.1016-5.2383-12.93-5.1875h-31.008c-4.8281-0.050781-9.4766 1.8125-12.93 5.1875-3.4531 3.3711-5.4297 7.9766-5.4883 12.801v6.125c-0.20312 0.28516-0.49219 0.5-0.82422 0.60547-7.1094 2.8477-13.828 6.5781-20.004 11.105-0.44141 0.39062-1.0664 0.50391-1.6172 0.29688l-5.6602-3.125c-4.2031-2.293-9.125-2.8945-13.758-1.6836-4.6328 1.2109-8.6289 4.1445-11.172 8.2031l-2.5391 4.2344h-339.25c-4.832 0-8.75 3.918-8.75 8.75v105c0 2.3203 0.92188 4.5469 2.5625 6.1875s3.8672 2.5625 6.1875 2.5625h339.25l2.5547 4.2344c2.543 4.0586 6.5391 6.9961 11.172 8.207 4.6328 1.2109 9.5547 0.60938 13.758-1.6875l5.6602-3.125c0.55469-0.19922 1.1758-0.085937 1.6211 0.29688 6.1719 4.5273 12.895 8.2578 20 11.105 0.30469 0.11719 0.58203 0.29688 0.80859 0.53516v6.1953c0.058594 4.8242 2.0352 9.4297 5.4883 12.801 3.4531 3.375 8.1016 5.2383 12.93 5.1875h31.012-0.003906c4.8281 0.050781 9.4766-1.8125 12.93-5.1875 3.4531-3.3711 5.4297-7.9766 5.4883-12.801v-6.125c0.20312-0.28516 0.49219-0.5 0.82422-0.60547 7.1094-2.8477 13.828-6.5781 20.004-11.105 0.44141-0.38672 1.0625-0.5 1.6172-0.29688l5.6602 3.125c4.2031 2.2969 9.125 2.9023 13.762 1.6914 4.6328-1.2109 8.6289-4.1484 11.168-8.2109l15.504-25.672c2.5078-4.1055 3.2148-9.0625 1.9531-13.703-1.2695-4.7461-4.4336-8.7578-8.75-11.102l-5.9414-3.1758v-0.003906c0.5625-3.918 0.84375-7.8711 0.83984-11.828 0-3.9297-0.28906-7.875-0.51562-11.91l5.5898-3.0977c4.3203-2.3398 7.4883-6.3555 8.7578-11.102zm-194.44 38.02-5.5898 3.0977c-4.3203 2.3398-7.4844 6.3555-8.75 11.102-1.2617 4.6406-0.55469 9.5977 1.9492 13.703l2.3789 3.9375h-319.94v-87.5h319.93l-2.3789 3.9375c-2.5039 4.1055-3.2109 9.0625-1.9492 13.703 1.2695 4.7461 4.4336 8.7578 8.75 11.102l5.9414 3.1758v0.003906c-0.57031 3.9141-0.85547 7.8711-0.85938 11.828 0 3.9297 0.28906 7.875 0.51562 11.91zm162.01 44.527c-0.375 0.42188-0.99609 0.52344-1.4883 0.24609l-5.6719-3.125c-3.1914-1.7148-6.8047-2.4805-10.418-2.2188-3.6133 0.26562-7.0781 1.5547-9.9844 3.7148-4.9961 3.6562-10.426 6.6758-16.172 8.9883-3.4258 1.2852-6.3828 3.5703-8.4883 6.5625-2.1055 2.9922-3.2617 6.5508-3.3164 10.211v6.1953c0 0.12109-0.31641 0.48828-0.91797 0.48828h-31.008c-0.60547 0-0.91797-0.36719-0.91797-0.48828v-6.1953c-0.054687-3.6602-1.2109-7.2148-3.3125-10.207-2.1055-2.9922-5.0625-5.2812-8.4844-6.5664-5.7461-2.3086-11.184-5.3281-16.18-8.9883-3.3281-2.4492-7.3555-3.7734-11.488-3.7812-3.1211-0.007813-6.1914 0.77734-8.9258 2.2852l-5.6523 3.125c-0.49219 0.28125-1.1172 0.17578-1.4961-0.24609l-15.227-26.109 5.6016-3.0977c3.1602-1.707 5.7305-4.332 7.3711-7.5273 1.6445-3.1953 2.2773-6.8125 1.8242-10.375-0.89844-6.1875-0.89844-12.477 0-18.664 0.45312-3.5625-0.18359-7.1797-1.8242-10.371-1.6406-3.1953-4.2109-5.8164-7.3711-7.5234l-5.8789-3.5 15.504-25.672c0.375-0.42188 0.99609-0.52344 1.4883-0.24609l5.6719 3.125c3.1875 1.7188 6.8047 2.4922 10.418 2.2266 3.6172-0.26562 7.0781-1.5547 9.9844-3.7227 4.9961-3.6562 10.426-6.6758 16.172-8.9883 3.4258-1.2852 6.3828-3.5703 8.4883-6.5625 2.1055-2.9922 3.2617-6.5508 3.3164-10.211v-6.1953c0-0.12109 0.31641-0.48828 0.91797-0.48828h31.012c0.60547 0 0.91797 0.36719 0.91797 0.48828v6.1953h-0.003906c0.054687 3.6602 1.2109 7.2148 3.3125 10.207 2.1055 2.9922 5.0625 5.2812 8.4844 6.5664 5.7461 2.3086 11.184 5.3281 16.18 8.9883 2.9062 2.168 6.3711 3.4609 9.9883 3.7227 3.6172 0.26562 7.2344-0.50781 10.426-2.2266l5.6523-3.125c0.49219-0.28516 1.1172-0.17969 1.4961 0.24609l15.227 26.109-5.6016 3.0977c-3.1602 1.707-5.7305 4.332-7.3711 7.5273-1.6445 3.1953-2.2773 6.8125-1.8242 10.375 0.89844 6.1875 0.89844 12.477 0 18.664-0.45312 3.5625 0.18359 7.1797 1.8242 10.371 1.6406 3.1953 4.2109 5.8164 7.3711 7.5234l5.8789 3.5z"/>
  <path d="m516.25 371.88c-12.762 0-25.004 5.0703-34.031 14.094-9.0234 9.0273-14.094 21.27-14.094 34.031s5.0703 25.004 14.094 34.031c9.0273 9.0234 21.27 14.094 34.031 14.094s25.004-5.0703 34.031-14.094c9.0234-9.0273 14.094-21.27 14.094-34.031-0.015625-12.758-5.0898-24.992-14.109-34.016-9.0234-9.0195-21.258-14.094-34.016-14.109zm0 78.75c-8.1211 0-15.91-3.2266-21.656-8.9688-5.7422-5.7461-8.9688-13.535-8.9688-21.656s3.2266-15.91 8.9688-21.656c5.7461-5.7422 13.535-8.9688 21.656-8.9688s15.91 3.2266 21.656 8.9688c5.7422 5.7461 8.9688 13.535 8.9688 21.656s-3.2266 15.91-8.9688 21.656c-5.7461 5.7422-13.535 8.9688-21.656 8.9688z"/>
  <path d="m87.5 131.25h323.75c2.3203 0 4.5469-0.92188 6.1875-2.5625s2.5625-3.8672 2.5625-6.1875v-70c0-2.3203-0.92188-4.5469-2.5625-6.1875s-3.8672-2.5625-6.1875-2.5625h-323.75c-4.832 0-8.75 3.918-8.75 8.75v70c0 2.3203 0.92188 4.5469 2.5625 6.1875s3.8672 2.5625 6.1875 2.5625zm8.75-70h306.25v52.5h-306.25z"/>
  <path d="m87.5 297.5h323.75c2.3203 0 4.5469-0.92188 6.1875-2.5625s2.5625-3.8672 2.5625-6.1875v-70c0-2.3203-0.92188-4.5469-2.5625-6.1875s-3.8672-2.5625-6.1875-2.5625h-323.75c-4.832 0-8.75 3.918-8.75 8.75v70c0 2.3203 0.92188 4.5469 2.5625 6.1875s3.8672 2.5625 6.1875 2.5625zm8.75-70h306.25v52.5h-306.25z"/>
  <path d="m490 271.25h52.5c2.3203 0 4.5469-0.92188 6.1875-2.5625s2.5625-3.8672 2.5625-6.1875v-140h17.5c3.418 0 6.5234-1.9883 7.9492-5.0938s0.91797-6.7578-1.3086-9.3516l-52.5-61.25c-1.7109-1.8555-4.1172-2.9102-6.6406-2.9102s-4.9297 1.0547-6.6406 2.9102l-52.5 61.25c-2.2266 2.5938-2.7344 6.2461-1.3086 9.3516s4.5312 5.0938 7.9492 5.0938h17.5v140c0 2.3203 0.92188 4.5469 2.5625 6.1875s3.8672 2.5625 6.1875 2.5625zm26.25-205.3 33.477 39.051h-7.2266c-4.832 0-8.75 3.918-8.75 8.75v140h-35v-140c0-2.3203-0.92188-4.5469-2.5625-6.1875s-3.8672-2.5625-6.1875-2.5625h-7.2266z"/>
  <use x="70" y="691.25" xlink:href="#o"/>
  <use x="102.109375" y="691.25" xlink:href="#j"/>
  <use x="123.683594" y="691.25" xlink:href="#b"/>
  <use x="153.355469" y="691.25" xlink:href="#a"/>
  <use x="182.878906" y="691.25" xlink:href="#i"/>
  <use x="203.792969" y="691.25" xlink:href="#b"/>
  <use x="233.464844" y="691.25" xlink:href="#h"/>
  <use x="280.011719" y="691.25" xlink:href="#g"/>
  <use x="311.328125" y="691.25" xlink:href="#f"/>
  <use x="355.078125" y="691.25" xlink:href="#e"/>
  <use x="388.980469" y="691.25" xlink:href="#a"/>
  <use x="418.503906" y="691.25" xlink:href="#n"/>
  <use x="464.09375" y="691.25" xlink:href="#d"/>
  <use x="479.089844" y="691.25" xlink:href="#c"/>
  <use x="525.464844" y="691.25" xlink:href="#m"/>
  <use x="561.375" y="691.25" xlink:href="#d"/>
  <use x="576.371094" y="691.25" xlink:href="#c"/>
  <use x="607.519531" y="691.25" xlink:href="#l"/>
  <use x="636.613281" y="691.25" xlink:href="#a"/>
  <use x="666.136719" y="691.25" xlink:href="#b"/>
  <use x="695.808594" y="691.25" xlink:href="#k"/>
 </g>
</svg>
